<mxfile host="Electron" modified="2024-01-30T16:45:36.479Z" agent="Mozilla/5.0 (Windows NT 10.0; Win64; x64) AppleWebKit/537.36 (KHTML, like Gecko) draw.io/22.1.21 Chrome/120.0.6099.109 Electron/28.1.0 Safari/537.36" etag="zm_vsdIaymiLGxXkXmir" version="22.1.21" type="device">
  <diagram name="Page-1" id="s_cfcIt2JBAbsJGFU1qv">
    <mxGraphModel dx="1932" dy="654" grid="1" gridSize="10" guides="1" tooltips="1" connect="1" arrows="1" fold="1" page="1" pageScale="1" pageWidth="827" pageHeight="1169" math="0" shadow="0">
      <root>
        <mxCell id="0" />
        <mxCell id="1" parent="0" />
        <mxCell id="4gypm5pQm-OvbRaRX9J8-1" value="" style="rounded=0;whiteSpace=wrap;html=1;labelBackgroundColor=none;fontFamily=Verdana;fontSize=20;" parent="1" vertex="1">
          <mxGeometry x="-810" y="10" width="790" height="700" as="geometry" />
        </mxCell>
        <mxCell id="4gypm5pQm-OvbRaRX9J8-14" style="edgeStyle=orthogonalEdgeStyle;rounded=0;orthogonalLoop=1;jettySize=auto;html=1;entryX=1;entryY=0.5;entryDx=0;entryDy=0;labelBackgroundColor=none;strokeColor=#A8201A;fontColor=default;fontFamily=Verdana;fontSize=20;" parent="1" source="4gypm5pQm-OvbRaRX9J8-2" target="4gypm5pQm-OvbRaRX9J8-9" edge="1">
          <mxGeometry relative="1" as="geometry">
            <Array as="points">
              <mxPoint x="-420" y="210" />
              <mxPoint x="-420" y="215" />
            </Array>
          </mxGeometry>
        </mxCell>
        <mxCell id="4gypm5pQm-OvbRaRX9J8-3" value="&lt;font style=&quot;font-size: 30px;&quot;&gt;Block Diagram for Attendence Assistant&lt;br style=&quot;font-size: 30px;&quot;&gt;&lt;/font&gt;" style="text;html=1;align=center;verticalAlign=middle;resizable=0;points=[];autosize=1;strokeColor=none;fillColor=none;labelBackgroundColor=none;fontColor=#143642;rounded=0;fontFamily=Verdana;fontSize=30;" parent="1" vertex="1">
          <mxGeometry x="-723" y="30" width="620" height="50" as="geometry" />
        </mxCell>
        <mxCell id="4gypm5pQm-OvbRaRX9J8-22" style="edgeStyle=orthogonalEdgeStyle;rounded=0;orthogonalLoop=1;jettySize=auto;html=1;entryX=0;entryY=0.5;entryDx=0;entryDy=0;labelBackgroundColor=none;strokeColor=#A8201A;fontColor=default;fontFamily=Verdana;fontSize=20;" parent="1" source="4gypm5pQm-OvbRaRX9J8-9" target="4gypm5pQm-OvbRaRX9J8-15" edge="1">
          <mxGeometry relative="1" as="geometry" />
        </mxCell>
        <mxCell id="4gypm5pQm-OvbRaRX9J8-33" style="edgeStyle=orthogonalEdgeStyle;rounded=0;orthogonalLoop=1;jettySize=auto;html=1;entryX=1;entryY=0.5;entryDx=0;entryDy=0;labelBackgroundColor=none;strokeColor=#A8201A;fontColor=default;fontFamily=Verdana;fontSize=20;" parent="1" source="4gypm5pQm-OvbRaRX9J8-28" target="4gypm5pQm-OvbRaRX9J8-15" edge="1">
          <mxGeometry relative="1" as="geometry" />
        </mxCell>
        <mxCell id="aYPrk_Y9UIHExi2a5_WR-1" value="" style="group;fontFamily=Verdana;fontSize=20;" vertex="1" connectable="0" parent="1">
          <mxGeometry x="-790" y="530" width="320" height="130" as="geometry" />
        </mxCell>
        <mxCell id="4gypm5pQm-OvbRaRX9J8-28" value="" style="rounded=0;whiteSpace=wrap;html=1;labelBackgroundColor=none;fillColor=#FAE5C7;strokeColor=#0F8B8D;fontColor=#143642;fontFamily=Verdana;fontSize=20;" parent="aYPrk_Y9UIHExi2a5_WR-1" vertex="1">
          <mxGeometry width="320" height="130" as="geometry" />
        </mxCell>
        <mxCell id="4gypm5pQm-OvbRaRX9J8-29" value="&lt;font style=&quot;font-size: 27px;&quot;&gt;Storage&lt;/font&gt;" style="text;html=1;strokeColor=none;fillColor=none;align=center;verticalAlign=middle;whiteSpace=wrap;rounded=0;labelBackgroundColor=none;fontColor=#143642;fontFamily=Verdana;fontSize=20;" parent="aYPrk_Y9UIHExi2a5_WR-1" vertex="1">
          <mxGeometry x="100" y="15" width="120" height="39.5" as="geometry" />
        </mxCell>
        <mxCell id="4gypm5pQm-OvbRaRX9J8-30" value="AWS (S3)" style="rounded=0;whiteSpace=wrap;html=1;labelBackgroundColor=none;fillColor=#FAE5C7;strokeColor=#0F8B8D;fontColor=#143642;fontFamily=Verdana;fontSize=20;" parent="aYPrk_Y9UIHExi2a5_WR-1" vertex="1">
          <mxGeometry x="20" y="91" width="115" height="26" as="geometry" />
        </mxCell>
        <mxCell id="4gypm5pQm-OvbRaRX9J8-32" style="edgeStyle=orthogonalEdgeStyle;rounded=0;orthogonalLoop=1;jettySize=auto;html=1;entryX=1;entryY=0.5;entryDx=0;entryDy=0;labelBackgroundColor=none;strokeColor=#A8201A;fontColor=default;fontFamily=Verdana;fontSize=20;" parent="aYPrk_Y9UIHExi2a5_WR-1" source="4gypm5pQm-OvbRaRX9J8-31" target="4gypm5pQm-OvbRaRX9J8-30" edge="1">
          <mxGeometry relative="1" as="geometry" />
        </mxCell>
        <mxCell id="4gypm5pQm-OvbRaRX9J8-31" value="DynamoDB" style="rounded=0;whiteSpace=wrap;html=1;labelBackgroundColor=none;fillColor=#FAE5C7;strokeColor=#0F8B8D;fontColor=#143642;fontFamily=Verdana;fontSize=20;" parent="aYPrk_Y9UIHExi2a5_WR-1" vertex="1">
          <mxGeometry x="185" y="91" width="110" height="26" as="geometry" />
        </mxCell>
        <mxCell id="aYPrk_Y9UIHExi2a5_WR-2" value="" style="group;fontFamily=Verdana;fontSize=20;" vertex="1" connectable="0" parent="1">
          <mxGeometry x="-680" y="370" width="500" height="120" as="geometry" />
        </mxCell>
        <mxCell id="4gypm5pQm-OvbRaRX9J8-15" value="" style="rounded=0;whiteSpace=wrap;html=1;labelBackgroundColor=none;fillColor=#f8cecc;strokeColor=#b85450;fontFamily=Verdana;fontSize=20;" parent="aYPrk_Y9UIHExi2a5_WR-2" vertex="1">
          <mxGeometry y="-10" width="500" height="130" as="geometry" />
        </mxCell>
        <mxCell id="4gypm5pQm-OvbRaRX9J8-16" value="Amazon EC2 (Backend)" style="rounded=0;whiteSpace=wrap;html=1;labelBackgroundColor=none;fillColor=#FAE5C7;strokeColor=#0F8B8D;fontColor=#143642;fontFamily=Verdana;fontSize=20;" parent="aYPrk_Y9UIHExi2a5_WR-2" vertex="1">
          <mxGeometry x="40" y="40" width="150" height="60" as="geometry" />
        </mxCell>
        <mxCell id="4gypm5pQm-OvbRaRX9J8-19" style="edgeStyle=orthogonalEdgeStyle;rounded=0;orthogonalLoop=1;jettySize=auto;html=1;entryX=1;entryY=0.5;entryDx=0;entryDy=0;labelBackgroundColor=none;strokeColor=#A8201A;fontColor=default;fontFamily=Verdana;fontSize=20;" parent="aYPrk_Y9UIHExi2a5_WR-2" source="4gypm5pQm-OvbRaRX9J8-17" target="4gypm5pQm-OvbRaRX9J8-16" edge="1">
          <mxGeometry relative="1" as="geometry" />
        </mxCell>
        <mxCell id="4gypm5pQm-OvbRaRX9J8-17" value=" Backend Logic" style="rounded=0;whiteSpace=wrap;html=1;labelBackgroundColor=none;fillColor=#FAE5C7;strokeColor=#0F8B8D;fontColor=#143642;fontFamily=Verdana;fontSize=20;" parent="aYPrk_Y9UIHExi2a5_WR-2" vertex="1">
          <mxGeometry x="270" y="40" width="160" height="60" as="geometry" />
        </mxCell>
        <mxCell id="4gypm5pQm-OvbRaRX9J8-26" value="&lt;font style=&quot;font-size: 27px;&quot;&gt;Backend&lt;/font&gt;" style="text;html=1;strokeColor=none;fillColor=none;align=center;verticalAlign=middle;whiteSpace=wrap;rounded=0;labelBackgroundColor=none;fontColor=#143642;fontFamily=Verdana;fontSize=20;" parent="aYPrk_Y9UIHExi2a5_WR-2" vertex="1">
          <mxGeometry x="220" width="60" height="30" as="geometry" />
        </mxCell>
        <mxCell id="aYPrk_Y9UIHExi2a5_WR-4" value="" style="group;fontFamily=Verdana;fontSize=20;" vertex="1" connectable="0" parent="1">
          <mxGeometry x="-770" y="100" width="340" height="210" as="geometry" />
        </mxCell>
        <mxCell id="4gypm5pQm-OvbRaRX9J8-9" value="" style="rounded=0;whiteSpace=wrap;html=1;labelBackgroundColor=none;fillColor=#dae8fc;strokeColor=#6c8ebf;fontFamily=Verdana;fontSize=20;" parent="aYPrk_Y9UIHExi2a5_WR-4" vertex="1">
          <mxGeometry width="340" height="210.00000000000003" as="geometry" />
        </mxCell>
        <mxCell id="4gypm5pQm-OvbRaRX9J8-10" value="Raspberry pi" style="rounded=0;whiteSpace=wrap;html=1;labelBackgroundColor=none;fillColor=#FAE5C7;strokeColor=#0F8B8D;fontColor=#143642;fontFamily=Verdana;fontSize=20;" parent="aYPrk_Y9UIHExi2a5_WR-4" vertex="1">
          <mxGeometry x="10" y="88.42105263157896" width="140" height="88.42105263157896" as="geometry" />
        </mxCell>
        <mxCell id="4gypm5pQm-OvbRaRX9J8-12" style="edgeStyle=orthogonalEdgeStyle;rounded=0;orthogonalLoop=1;jettySize=auto;html=1;labelBackgroundColor=none;strokeColor=#A8201A;fontColor=default;fontFamily=Verdana;fontSize=20;" parent="aYPrk_Y9UIHExi2a5_WR-4" source="4gypm5pQm-OvbRaRX9J8-11" target="4gypm5pQm-OvbRaRX9J8-10" edge="1">
          <mxGeometry relative="1" as="geometry" />
        </mxCell>
        <mxCell id="4gypm5pQm-OvbRaRX9J8-11" value="Camera" style="rounded=0;whiteSpace=wrap;html=1;labelBackgroundColor=none;fillColor=#FAE5C7;strokeColor=#0F8B8D;fontColor=#143642;fontFamily=Verdana;fontSize=20;" parent="aYPrk_Y9UIHExi2a5_WR-4" vertex="1">
          <mxGeometry x="210" y="66.31578947368422" width="100" height="44.21052631578948" as="geometry" />
        </mxCell>
        <mxCell id="4gypm5pQm-OvbRaRX9J8-25" value="&lt;font style=&quot;font-size: 27px;&quot;&gt;Hardware&lt;/font&gt;" style="text;html=1;strokeColor=none;fillColor=none;align=center;verticalAlign=middle;whiteSpace=wrap;rounded=0;labelBackgroundColor=none;fontColor=#143642;fontFamily=Verdana;fontSize=20;" parent="aYPrk_Y9UIHExi2a5_WR-4" vertex="1">
          <mxGeometry x="140" y="11.05263157894737" width="60" height="33.15789473684211" as="geometry" />
        </mxCell>
        <mxCell id="aYPrk_Y9UIHExi2a5_WR-5" value="" style="group;fontFamily=Verdana;fontSize=20;" vertex="1" connectable="0" parent="1">
          <mxGeometry x="-410" y="120" width="370" height="190" as="geometry" />
        </mxCell>
        <mxCell id="4gypm5pQm-OvbRaRX9J8-2" value="" style="rounded=0;whiteSpace=wrap;html=1;labelBackgroundColor=none;fillColor=#d5e8d4;strokeColor=#82b366;fontFamily=Verdana;fontSize=20;" parent="aYPrk_Y9UIHExi2a5_WR-5" vertex="1">
          <mxGeometry y="-20" width="370" height="210" as="geometry" />
        </mxCell>
        <mxCell id="4gypm5pQm-OvbRaRX9J8-4" value="&lt;font style=&quot;font-size: 27px;&quot;&gt;Frontend/App&lt;/font&gt;" style="text;html=1;strokeColor=none;fillColor=none;align=center;verticalAlign=middle;whiteSpace=wrap;rounded=0;labelBackgroundColor=none;fontColor=#143642;fontFamily=Verdana;fontSize=20;" parent="aYPrk_Y9UIHExi2a5_WR-5" vertex="1">
          <mxGeometry x="82.43" y="-20" width="213.47" height="40" as="geometry" />
        </mxCell>
        <mxCell id="4gypm5pQm-OvbRaRX9J8-5" value="login/signup" style="rounded=0;whiteSpace=wrap;html=1;labelBackgroundColor=none;fillColor=#FAE5C7;strokeColor=#0F8B8D;fontColor=#143642;fontFamily=Verdana;fontSize=20;" parent="aYPrk_Y9UIHExi2a5_WR-5" vertex="1">
          <mxGeometry x="28.46" y="52.77777777777778" width="151.54" height="52.77777777777778" as="geometry" />
        </mxCell>
        <mxCell id="4gypm5pQm-OvbRaRX9J8-6" value="Register face" style="rounded=0;whiteSpace=wrap;html=1;labelBackgroundColor=none;fillColor=#FAE5C7;strokeColor=#0F8B8D;fontColor=#143642;fontFamily=Verdana;fontSize=20;" parent="aYPrk_Y9UIHExi2a5_WR-5" vertex="1">
          <mxGeometry x="227.69" y="52.77777777777778" width="132.31" height="52.77777777777778" as="geometry" />
        </mxCell>
        <mxCell id="4gypm5pQm-OvbRaRX9J8-7" style="edgeStyle=orthogonalEdgeStyle;rounded=0;orthogonalLoop=1;jettySize=auto;html=1;entryX=0;entryY=0.5;entryDx=0;entryDy=0;labelBackgroundColor=none;strokeColor=#A8201A;fontColor=default;fontFamily=Verdana;fontSize=20;" parent="aYPrk_Y9UIHExi2a5_WR-5" source="4gypm5pQm-OvbRaRX9J8-5" target="4gypm5pQm-OvbRaRX9J8-6" edge="1">
          <mxGeometry relative="1" as="geometry" />
        </mxCell>
        <mxCell id="4gypm5pQm-OvbRaRX9J8-8" value="Student details(attendance)" style="rounded=0;whiteSpace=wrap;html=1;labelBackgroundColor=none;fillColor=#FAE5C7;strokeColor=#0F8B8D;fontColor=#143642;fontFamily=Verdana;fontSize=20;" parent="aYPrk_Y9UIHExi2a5_WR-5" vertex="1">
          <mxGeometry x="82.43" y="116.11111111111111" width="205.13" height="63.333333333333336" as="geometry" />
        </mxCell>
      </root>
    </mxGraphModel>
  </diagram>
</mxfile>
